<?xml version="1.0" encoding="UTF-8" standalone="no"?>
<!-- Created with Inkscape (http://www.inkscape.org/) -->

<svg
   xmlns:dc="http://purl.org/dc/elements/1.1/"
   xmlns:cc="http://creativecommons.org/ns#"
   xmlns:rdf="http://www.w3.org/1999/02/22-rdf-syntax-ns#"
   xmlns:svg="http://www.w3.org/2000/svg"
   xmlns="http://www.w3.org/2000/svg"
   xmlns:sodipodi="http://sodipodi.sourceforge.net/DTD/sodipodi-0.dtd"
   xmlns:inkscape="http://www.inkscape.org/namespaces/inkscape"
   width="6.0854163mm"
   height="6.3499999mm"
   viewBox="0 0 6.0854163 6.3499999"
   version="1.1"
   id="svg8"
   inkscape:version="0.92.2 5c3e80d, 2017-08-06"
   sodipodi:docname="pdf-icon.svg"
   inkscape:export-filename="/Users/hungle/Desktop/pdf-icon.png"
   inkscape:export-xdpi="96"
   inkscape:export-ydpi="96">
  <defs
     id="defs2" />
  <sodipodi:namedview
     id="base"
     pagecolor="#ffffff"
     bordercolor="#666666"
     borderopacity="1.0"
     inkscape:pageopacity="0.0"
     inkscape:pageshadow="2"
     inkscape:zoom="4"
     inkscape:cx="-8.4157364"
     inkscape:cy="3.7114933"
     inkscape:document-units="mm"
     inkscape:current-layer="layer1"
     showgrid="false"
     inkscape:window-width="1440"
     inkscape:window-height="805"
     inkscape:window-x="0"
     inkscape:window-y="1"
     inkscape:window-maximized="1"
     inkscape:snap-global="false"
     fit-margin-top="0"
     fit-margin-left="0"
     fit-margin-right="0"
     fit-margin-bottom="0" />
  <metadata
     id="metadata5">
    <rdf:RDF>
      <cc:Work
         rdf:about="">
        <dc:format>image/svg+xml</dc:format>
        <dc:type
           rdf:resource="http://purl.org/dc/dcmitype/StillImage" />
        <dc:title></dc:title>
      </cc:Work>
    </rdf:RDF>
  </metadata>
  <g
     inkscape:label="Layer 1"
     inkscape:groupmode="layer"
     id="layer1"
     transform="translate(-53.588883,-31.733649)">
    <rect
       style="opacity:1;fill:#ff0000;fill-opacity:1;fill-rule:nonzero;stroke:#f40000;stroke-width:0.25924492;stroke-miterlimit:4;stroke-dasharray:none;stroke-dashoffset:0;stroke-opacity:1"
       id="rect815"
       width="5.8261714"
       height="6.090755"
       x="53.718506"
       y="31.863272"
       ry="0.38453701" />
    <rect
       style="opacity:1;fill:#ffffff;fill-opacity:1;fill-rule:nonzero;stroke:#f40000;stroke-width:0.25361988;stroke-miterlimit:4;stroke-dasharray:none;stroke-dashoffset:0;stroke-opacity:1"
       id="rect836"
       width="4.80511"
       height="3.9999611"
       x="54.216824"
       y="33.553623" />
    <path
       style="opacity:1;vector-effect:none;fill:none;fill-opacity:1;stroke:#f00000;stroke-width:0.1517193;stroke-linecap:butt;stroke-linejoin:miter;stroke-miterlimit:4;stroke-dasharray:none;stroke-dashoffset:0;stroke-opacity:1"
       d="m 55.133251,37.111816 c 0.02907,0.0122 0.06492,0.0071 0.09448,-0.0039 0.140305,-0.05225 0.253435,-0.166753 0.35221,-0.279728 0.128794,-0.147303 0.213511,-0.329296 0.300888,-0.504643 0.255741,-0.513241 0.519624,-1.034552 0.649387,-1.593568 0.03257,-0.140428 0.05638,-0.289815 0.02999,-0.431555 -0.01261,-0.06762 -0.02966,-0.149882 -0.08742,-0.186745 -0.03384,-0.02158 -0.0835,-0.01616 -0.120197,0 -0.05903,0.02599 -0.107664,0.08246 -0.131128,0.142806 -0.03717,0.09549 -0.01399,0.206026 0,0.307578 0.02759,0.199777 0.08753,0.395701 0.163908,0.582206 0.07447,0.181866 0.160042,0.364223 0.28411,0.516294 0.118007,0.144642 0.270812,0.259526 0.426162,0.362505 0.163185,0.108175 0.334264,0.218492 0.524506,0.263641 0.124073,0.02944 0.26793,0.0563 0.382453,0 0.03729,-0.01834 0.06754,-0.0581 0.07649,-0.09887 0.0105,-0.0477 5.75e-4,-0.107291 -0.03274,-0.142805 -0.06252,-0.06655 -0.172104,-0.06395 -0.262247,-0.07689 -0.129816,-0.01864 -0.263005,-0.014 -0.393382,0 -0.274205,0.02945 -0.542652,0.102525 -0.808615,0.17576 -0.222189,0.06118 -0.442806,0.131077 -0.655639,0.219701 -0.188114,0.07834 -0.373635,0.166227 -0.546364,0.274625 -0.07962,0.04998 -0.160679,0.101976 -0.223733,0.171875 -0.03964,0.04391 -0.07338,0.09083 -0.09316,0.151126 -0.01199,0.06437 0.01365,0.126499 0.07009,0.150571 z"
       id="path1533"
       inkscape:connector-curvature="0"
       sodipodi:nodetypes="caaaaaaaaaaaaaaaaaaaaaacc" />
    <text
       xml:space="preserve"
       style="font-style:normal;font-weight:normal;font-size:10.58333302px;line-height:1.25;font-family:sans-serif;letter-spacing:0px;word-spacing:0px;fill:#ffffff;fill-opacity:1;stroke:none;stroke-width:0.26458332"
       x="54.86797"
       y="33.243488"
       id="text1537"><tspan
         sodipodi:role="line"
         id="tspan1535"
         x="54.86797"
         y="33.243488"
         style="font-style:normal;font-variant:normal;font-weight:bold;font-stretch:normal;font-size:1.76388884px;font-family:sans-serif;-inkscape-font-specification:'sans-serif Bold';fill:#ffffff;fill-opacity:1;stroke-width:0.26458332">PDF</tspan></text>
  </g>
</svg>
